<svg xmlns="http://www.w3.org/2000/svg" width="1000" height="1000" viewBox="0 0 1000 1000" version="1.1"><path d="M 534.500 178.454 C 532.300 179.274, 528.475 180.209, 526 180.532 C 495.608 184.501, 476.442 192.750, 454.786 211.182 L 450.460 214.864 441.480 212.372 C 433.322 210.108, 429.799 209.799, 403 209.004 C 386.775 208.523, 371.475 207.661, 369 207.089 C 358.680 204.704, 334.982 206.230, 316.722 210.457 C 304.862 213.202, 295.532 216.577, 281.060 223.357 C 275.582 225.924, 258.755 239.130, 255.147 243.695 C 253.021 246.385, 249.787 249.843, 247.962 251.379 C 244.053 254.668, 240.569 259.977, 236.283 269.179 C 232.150 278.052, 230.714 285.383, 230.688 297.750 C 230.673 304.962, 230.316 308, 229.484 308 C 226.232 308, 203.308 318.319, 197.792 322.267 C 185.094 331.351, 174.703 342.426, 167 355.082 C 155.090 374.652, 149.224 384.036, 146.421 388 C 141.751 394.605, 139.325 399.849, 136.620 409.181 C 132.648 422.890, 132.116 432.255, 132.638 479.310 L 133.125 523.119 129.451 527.186 C 127.430 529.423, 124.364 534.234, 122.638 537.877 C 119.525 544.447, 119.497 544.647, 119.187 562.847 C 118.877 581.010, 118.906 581.301, 122.066 591.847 C 126.093 605.289, 130.925 615.922, 135.988 622.485 C 140.516 628.353, 149.023 642.606, 155.405 655.015 C 159.590 663.153, 170.104 676.108, 177.500 682.239 C 185.968 689.260, 200.290 692.861, 224.500 694.056 C 250.478 695.338, 280.783 695.208, 284.684 693.797 C 289.556 692.036, 301.070 694.195, 306.965 697.976 C 309.459 699.576, 316.675 703.382, 323 706.434 C 336.736 713.062, 348.906 720.078, 358.657 726.989 C 362.594 729.779, 369.885 734.274, 374.860 736.977 C 379.835 739.680, 384.991 742.603, 386.316 743.471 C 387.642 744.340, 395.234 747.231, 403.187 749.895 C 421.163 755.917, 430.406 760.402, 431.985 763.866 C 433.839 767.935, 434.424 783.055, 433.062 791.702 C 432.273 796.710, 430.284 802.907, 427.503 809.024 C 419.436 826.764, 417.807 839.738, 422.485 848.971 C 426.698 857.284, 433.426 861.182, 443.635 861.224 C 455.733 861.275, 464.824 853.261, 468.072 839.685 C 468.754 836.833, 470.341 832.925, 471.597 831 C 474.650 826.324, 477.220 818.810, 480.381 805.318 C 482.566 795.990, 482.999 791.762, 482.996 779.818 C 482.992 764.240, 481.005 749.048, 478.124 742.568 C 475.165 735.912, 469.308 727.400, 465.563 724.312 C 458.568 718.547, 434.939 707.771, 417.500 702.394 C 414.750 701.546, 411.375 700.230, 410 699.471 C 408.625 698.711, 404.076 696.296, 399.890 694.104 C 395.705 691.912, 389.405 687.807, 385.890 684.981 C 382.376 682.155, 376.350 678.299, 372.500 676.411 C 368.650 674.523, 362.800 671.251, 359.500 669.138 C 356.200 667.026, 349.774 663.684, 345.219 661.712 C 340.665 659.740, 335.542 656.951, 333.836 655.515 C 328.760 651.244, 323.894 649.239, 311.882 646.470 C 299.277 643.563, 286.522 643.115, 273.701 645.128 C 265.430 646.426, 229.459 645.610, 216.314 643.826 C 208.880 642.817, 207.808 642.383, 204.656 639.107 C 202.747 637.123, 198.945 631.165, 196.208 625.866 C 193.471 620.567, 190.337 614.942, 189.244 613.366 C 188.151 611.790, 185.344 607.350, 183.006 603.500 C 180.668 599.650, 177.639 595.302, 176.274 593.837 C 172.962 590.283, 167.003 572.027, 167.001 565.431 C 167 560.531, 167.247 560.089, 174.438 552.135 C 178.529 547.609, 182.417 542.268, 183.078 540.264 C 184.430 536.166, 183.769 518.838, 182.037 513.007 C 181.400 510.861, 181 494.839, 181 471.487 C 181 436.139, 181.146 432.933, 183.065 425.980 C 184.201 421.866, 186.155 417.375, 187.407 416 C 188.659 414.625, 191.836 409.675, 194.467 405 C 197.099 400.325, 200.951 394.250, 203.028 391.500 C 205.104 388.750, 207.534 384.731, 208.426 382.570 C 209.355 380.320, 213.580 375.155, 218.310 370.489 C 225.290 363.603, 227.651 361.939, 233.535 359.757 C 237.366 358.337, 243.352 356.884, 246.837 356.528 C 255.444 355.649, 264.859 352.610, 269.585 349.184 C 271.738 347.623, 274.850 343.905, 276.500 340.923 L 279.500 335.500 279.767 315 C 279.914 303.725, 280.260 293.490, 280.535 292.256 C 281.606 287.451, 301.036 268.359, 306.500 266.743 C 307.600 266.417, 311.200 265.023, 314.500 263.644 C 317.800 262.264, 325.675 259.939, 332 258.476 C 344.271 255.638, 346.984 255.600, 372 257.916 C 377.775 258.450, 391.243 258.913, 401.929 258.944 C 412.615 258.975, 422.740 259.440, 424.429 259.979 C 441.688 265.480, 446.121 266.233, 458.923 265.834 C 470.376 265.477, 471.997 265.192, 476.037 262.823 C 478.651 261.291, 482.985 257.033, 486.498 252.547 C 495.936 240.494, 505.995 235.463, 529.500 231.037 C 535.550 229.898, 543.082 228.464, 546.239 227.849 C 549.787 227.158, 557.802 226.936, 567.239 227.266 C 579.634 227.701, 584.002 228.268, 590.500 230.285 C 605.278 234.872, 605.639 235.178, 614.306 250.436 C 616.473 254.251, 619.310 260.502, 620.611 264.326 C 623.622 273.180, 626.432 276.816, 633.130 280.526 L 638.500 283.500 664.500 284.106 C 691.025 284.724, 698.290 285.590, 713.500 289.948 C 725.383 293.353, 740.262 298.594, 745.502 301.219 C 748.251 302.596, 752.790 304.473, 755.589 305.388 C 758.387 306.304, 761.815 308.279, 763.205 309.777 C 766.231 313.036, 772.862 324.370, 776.326 332.202 C 779.168 338.629, 787.343 352.509, 790.047 355.500 C 791.042 356.600, 792.802 360.040, 793.960 363.145 C 797.129 371.644, 801.032 376.379, 807.460 379.524 C 812.351 381.917, 814.561 382.323, 824.783 382.708 C 834.859 383.088, 837.200 383.508, 841.500 385.708 C 849.466 389.784, 855.600 396.415, 860.059 405.769 C 863.990 414.018, 864 414.070, 864 426.430 L 864 438.820 860.037 443.835 C 853.272 452.393, 843.791 462.059, 840.574 463.677 C 838.883 464.528, 836.150 466.448, 834.500 467.943 C 831.300 470.844, 818.798 476.402, 813 477.501 C 811.075 477.866, 804.995 478.516, 799.488 478.945 C 791.785 479.545, 788.305 480.319, 784.398 482.298 C 775.312 486.903, 770.158 494.692, 768.055 507 C 766.199 517.862, 763.793 527.309, 761.931 531.050 C 759.942 535.044, 754.586 548.494, 750.203 560.500 C 746.382 570.966, 742.195 577.906, 737.836 580.999 C 733.393 584.151, 725.255 590.549, 717.500 596.988 C 714.200 599.728, 710.150 602.717, 708.500 603.631 C 699.180 608.791, 679.232 622.918, 671.045 630.157 C 658.813 640.971, 648.583 653.063, 646.050 659.699 C 639.409 677.102, 644.757 693.663, 658.536 698.357 C 671.438 702.754, 684.909 698.025, 690.104 687.277 C 697.101 672.803, 701.330 669.107, 740 643.680 C 743.025 641.691, 747.975 638.020, 751 635.522 C 754.025 633.024, 760.301 628.173, 764.947 624.740 C 774.623 617.592, 781.271 611.047, 783.984 606 C 785.019 604.075, 787.462 600.054, 789.413 597.064 C 791.364 594.075, 793.927 588.675, 795.108 585.064 C 798.227 575.529, 803.818 561.294, 806.595 555.812 C 809.329 550.417, 810.995 545.556, 813.556 535.500 C 814.537 531.650, 815.460 528.341, 815.607 528.146 C 815.754 527.952, 819.506 527.163, 823.945 526.392 C 844.437 522.836, 863.665 512.470, 882.565 494.791 C 889.423 488.375, 904 471.567, 904 470.075 C 904 469.603, 905.781 467.062, 907.958 464.428 C 913.854 457.293, 916.838 447.041, 917.642 431.155 C 918.274 418.669, 916.609 403.210, 914.017 397.500 C 910.861 390.546, 906.288 381.131, 904.715 378.350 C 897.270 365.176, 881.544 349.781, 867.936 342.342 C 857.777 336.788, 851.455 334.576, 842.577 333.466 C 838.638 332.974, 836.649 332.212, 835.965 330.934 C 835.427 329.928, 833.302 327.097, 831.243 324.641 C 826.910 319.473, 824.534 315.576, 818.963 304.500 C 813.234 293.111, 808.086 284.379, 803.200 277.768 C 798.504 271.414, 787.921 263.660, 778.988 260.030 C 775.970 258.803, 770.575 256.513, 767 254.942 C 758.971 251.412, 739.047 244.565, 729 241.881 C 708.244 236.338, 698.928 234.902, 678.610 234.115 L 662.720 233.500 659.106 226.500 C 654.974 218.498, 644.173 202.450, 640.760 199.244 C 632.603 191.581, 613.242 183.187, 595 179.404 C 583.890 177.100, 539.984 176.411, 534.500 178.454 M 527.500 443.491 C 526.950 443.675, 525.251 444.101, 523.725 444.438 C 520.340 445.185, 513.464 451.234, 511.235 455.425 C 509.014 459.599, 509.001 472.391, 511.214 476.500 C 518.611 490.236, 537.367 493.356, 548.440 482.691 C 560.469 471.105, 555.275 448.077, 539.751 444.168 C 535.372 443.065, 529.715 442.753, 527.500 443.491 M 433.500 445.440 C 428.065 447.450, 421.450 454.620, 419.965 460.112 C 417.145 470.534, 420.763 481.168, 428.978 486.604 C 433.771 489.776, 443.646 490.932, 449.486 489.005 C 453.950 487.531, 460.478 481.900, 462.734 477.575 C 464.464 474.257, 465.035 463.413, 463.725 458.725 C 462.767 455.299, 456.636 448.380, 452.797 446.395 C 448.522 444.185, 438.267 443.677, 433.500 445.440 M 620.500 491.652 C 618.850 492.517, 615.456 495.202, 612.958 497.620 C 606.947 503.436, 598.116 506.736, 576 511.426 C 566.375 513.468, 552.417 516.441, 544.982 518.034 C 499.993 527.672, 486.121 528.771, 457.500 524.964 C 411.356 518.825, 394.184 516.940, 389.811 517.534 C 371.647 520.001, 364.637 542.900, 378.128 555.699 C 379.983 557.459, 383.148 559.586, 385.163 560.426 C 387.178 561.267, 399.553 563.307, 412.663 564.961 C 425.773 566.615, 443.250 568.866, 451.500 569.964 C 469.615 572.374, 494.568 572.626, 511.038 570.567 C 521.696 569.234, 534.408 566.788, 571 559.030 C 578.975 557.339, 590.675 554.860, 597 553.521 C 612.498 550.240, 629.185 543.535, 637.862 537.102 C 648.209 529.432, 652.005 522.742, 651.991 512.203 C 651.972 498.722, 643.220 489.956, 629.865 490.040 C 626.090 490.064, 622.279 490.720, 620.500 491.652 M 637.500 732.659 C 633.087 734.981, 629.101 738.971, 626.669 743.500 C 624.969 746.666, 624.530 749.167, 624.565 755.500 C 624.622 765.972, 627.548 771.864, 637.525 781.591 C 641.525 785.492, 645.710 790.472, 646.826 792.658 C 647.941 794.845, 649.597 797.250, 650.505 798.004 C 653.340 800.357, 656.674 808.105, 659.325 818.500 C 661.613 827.467, 662.882 831.608, 666.363 841.446 C 667.848 845.644, 672.637 850.766, 677.405 853.256 C 683.138 856.250, 694.844 856.267, 700.500 853.289 C 714.033 846.164, 717.696 830.132, 709.975 811.814 C 708.888 809.237, 707.333 803.960, 706.518 800.088 C 704.851 792.161, 697.349 775.302, 693.131 770 C 691.599 768.075, 689.052 764.250, 687.470 761.500 C 685.888 758.750, 681.422 753.234, 677.547 749.243 C 673.671 745.251, 669.158 740.345, 667.518 738.340 C 663.138 732.986, 658.055 731.040, 648.500 731.062 C 643.176 731.074, 639.497 731.608, 637.500 732.659" stroke="none" fill="#fffcfc" fill-rule="evenodd"/><path d="" stroke="none" fill="#fcfcfc" fill-rule="evenodd"/></svg>